<?xml version="1.0" standalone="no"?><!DOCTYPE svg PUBLIC "-//W3C//DTD SVG 1.1//EN" "http://www.w3.org/Graphics/SVG/1.1/DTD/svg11.dtd"><svg t="1598147803680" class="icon" viewBox="0 0 1024 1024" version="1.1" xmlns="http://www.w3.org/2000/svg" p-id="1843" xmlns:xlink="http://www.w3.org/1999/xlink" width="32" height="32"><defs><style type="text/css">@font-face { font-family: element-icons; src: url("chrome-extension://moombeodfomdpjnpocobemoiaemednkg/fonts/element-icons.woff") format("woff"), url("chrome-extension://moombeodfomdpjnpocobemoiaemednkg/fonts/element-icons.ttf ") format("truetype"); }
</style></defs><path d="M761.6 420.266667c0 6.4 4.266667 10.666667 10.666667 10.666666l74.666666-4.266666-226.133333 189.866666-100.266667-108.8c-4.266667-4.266667-10.666667-4.266667-14.933333-2.133333l-238.933333 170.666667c-4.266667 4.266667-6.4 10.666667-2.133334 14.933333 2.133333 2.133333 6.4 4.266667 8.533334 4.266667 2.133333 0 4.266667 0 6.4-2.133334l230.4-164.266666 102.4 108.8c4.266667 4.266667 10.666667 4.266667 14.933333 0l234.666667-196.266667-17.066667 72.533333c-2.133333 6.4 2.133333 10.666667 8.533333 12.8h2.133334c4.266667 0 8.533333-4.266667 10.666666-8.533333l23.466667-104.533333c0-4.266667 0-6.4-2.133333-8.533334s-6.4-4.266667-8.533334-4.266666l-106.666666 6.4c-6.4 2.133333-10.666667 6.4-10.666667 12.8z m192 53.333333c-6.4-10.666667-19.2-14.933333-27.733333-8.533333-10.666667 6.4-14.933333 19.2-8.533334 27.733333 14.933333 29.866667 23.466667 64 23.466667 98.133333C938.666667 712.533333 838.4 810.666667 714.666667 810.666667h-405.333334C185.6 810.666667 85.333333 712.533333 85.333333 593.066667c0-110.933333 85.333333-204.8 198.4-217.6 8.533333 0 14.933333-6.4 17.066667-14.933334 32-87.466667 115.2-147.2 211.2-147.2s179.2 59.733333 211.2 147.2c4.266667 10.666667 17.066667 17.066667 27.733333 12.8 10.666667-4.266667 17.066667-17.066667 12.8-27.733333C725.333333 241.066667 625.066667 170.666667 512 170.666667c-108.8 0-204.8 66.133333-245.333333 164.266666-128 19.2-224 128-224 258.133334C42.666667 736 162.133333 853.333333 309.333333 853.333333h407.466667C861.866667 853.333333 981.333333 736 981.333333 593.066667c0-42.666667-10.666667-83.2-27.733333-119.466667z" p-id="1844"></path></svg>